<?xml version="1.0" encoding="utf-8"?>
<!-- Generator: Adobe Illustrator 22.0.1, SVG Export Plug-In . SVG Version: 6.00 Build 0)  -->
<svg version="1.1" id="Layer_1" focusable="false" xmlns="http://www.w3.org/2000/svg" xmlns:xlink="http://www.w3.org/1999/xlink"
	 x="0px" y="0px" viewBox="0 0 320 512" style="enable-background:new 0 0 320 512;" xml:space="preserve">
<style type="text/css">
	.st0{fill:#9356DC;}
	.st1{fill:#FFFFFF;}
</style>
<circle class="st0" cx="159.2" cy="243.8" r="157.8"/>
<g>
	<path class="st1" d="M111.8,291.5c5.8,3.5,18.9,9.2,33.1,9.2c25.8,0,34-16.3,33.8-29c-0.2-20.9-19.1-29.9-38.6-29.9h-11.3v-15.2
		H140c14.7,0,33.3-7.6,33.3-25.3c0-12-7.6-22.5-26.2-22.5c-12,0-23.5,5.3-29.9,9.9l-5.5-14.7c8-5.8,23.2-11.5,39.3-11.5
		c29.4,0,42.8,17.5,42.8,35.6c0,15.6-9.4,28.7-27.6,35.4v0.5c18.4,3.5,33.1,17.2,33.3,38.2c0,23.9-18.9,44.8-54.5,44.8
		c-16.8,0-31.5-5.3-38.9-10.1L111.8,291.5z"/>
</g>
</svg>
