<?xml version="1.0" encoding="utf-8"?>
<!-- Generator: Adobe Illustrator 22.0.1, SVG Export Plug-In . SVG Version: 6.00 Build 0)  -->
<svg version="1.1" id="Layer_1" focusable="false" xmlns="http://www.w3.org/2000/svg" xmlns:xlink="http://www.w3.org/1999/xlink"
	 x="0px" y="0px" viewBox="0 0 512 512" style="enable-background:new 0 0 512 512;" xml:space="preserve">
<g>
	<path d="M144.1,42c38.9,0,77.1,16.2,104.8,44.3l7.1,7.3l7.1-7.3C290.8,58.2,328.9,42,367.8,42c15.4,0,30.4,2.5,44.5,7.4
		c14.6,5.1,27.9,12.7,39.6,22.5c15.9,13.3,28.2,29.1,36.7,46.7c7.9,16.3,12.3,34,13.2,52.4c1.9,39.8-13,80-40,107.5L286.5,457.3
		c-8.1,8.3-18.9,12.8-30.5,12.8c-11.5,0-22.3-4.6-30.5-12.9L50.1,278.5c-26.9-27.5-41.9-67.6-40-107.4c0.9-18.5,5.3-36.1,13.2-52.5
		C31.8,101,44.2,85.3,60,71.9c11.7-9.9,25-17.4,39.6-22.5C113.7,44.5,128.7,42,144.1,42 M144.1,32c-32.6,0-64.7,10.6-90.5,32.3
		C-21.6,127.6-10.6,230.8,43,285.5l175.4,178.7c10,10.2,23.4,15.9,37.6,15.9c14.3,0,27.6-5.6,37.6-15.8L469,285.6
		c53.5-54.7,64.7-157.9-10.6-221.3c-25.8-21.7-58-32.3-90.6-32.3c-40.3,0-81.3,16.1-111.8,47.3C225.4,48.2,184.4,32,144.1,32
		L144.1,32z"/>
</g>
</svg>
