<?xml version="1.0" encoding="utf-8"?>
<!-- Generator: Adobe Illustrator 22.0.1, SVG Export Plug-In . SVG Version: 6.00 Build 0)  -->
<svg version="1.1" id="Layer_1" focusable="false" xmlns="http://www.w3.org/2000/svg" xmlns:xlink="http://www.w3.org/1999/xlink"
	 x="0px" y="0px" viewBox="0 0 512 512" style="enable-background:new 0 0 512 512;" xml:space="preserve">
<style type="text/css">
	.st0{fill:url(#SVGID_1_);}
</style>
<g>
	<g>
		
			<linearGradient id="SVGID_1_" gradientUnits="userSpaceOnUse" x1="109.0642" y1="412.2493" x2="383.3927" y2="217.5646" gradientTransform="matrix(1 0 0 -1 0 514)">
			<stop  offset="0" style="stop-color:#FF79DA"/>
			<stop  offset="1" style="stop-color:#9356DC"/>
		</linearGradient>
		<path class="st0" d="M256,476.1c-13.1,0-25.5-5.2-34.7-14.7L45.9,282.7C17.8,254,2.2,212.2,4.2,170.8c1.4-28.4,11.5-69.4,52-103.5
			c24-20.2,55.3-31.4,87.9-31.4c40.5,0,80.2,16.8,109,46.1L256,85l2.9-2.9C287.5,52.8,327.2,36,367.8,36c32.7,0,64,11.1,88,31.4
			c40.5,34.1,50.6,75,52,103.4c2,41.4-13.6,83.3-41.7,112L290.7,461.5C281.5,470.9,269.2,476.1,256,476.1z"/>
		<path d="M367.8,40c31.8,0,62.1,10.8,85.4,30.4c16.1,13.5,28.6,29.5,37.2,47.3c8,16.6,12.5,34.5,13.4,53.2
			c2,40.3-13.2,81.1-40.5,109L287.9,458.7c-8.5,8.6-19.8,13.4-31.9,13.4c-12,0-23.4-4.8-31.9-13.5L48.7,279.9
			C21.4,252,6.2,211.3,8.2,171c0.9-18.8,5.4-36.7,13.4-53.2c8.6-17.9,21.1-33.8,37.2-47.4c11.9-10,25.4-17.7,40.2-22.9
			c14.3-5,29.5-7.6,45.2-7.6c39.4,0,78.1,16.4,106.2,44.9l5.7,5.8l5.7-5.8C289.6,56.4,328.3,40,367.8,40 M367.8,32
			c-40.3,0-81.3,16.1-111.8,47.3C225.4,48.2,184.4,32,144.1,32c-32.6,0-64.7,10.6-90.5,32.3C-21.6,127.6-10.6,230.8,43,285.5
			l175.4,178.7c10,10.2,23.4,15.9,37.6,15.9c14.3,0,27.6-5.6,37.6-15.8L469,285.6c53.5-54.7,64.7-157.9-10.6-221.3
			C432.6,42.6,400.4,32,367.8,32L367.8,32z"/>
	</g>
</g>
</svg>
